<svg version="1.1" id="Layer_1" xmlns="http://www.w3.org/2000/svg" xmlns:xlink="http://www.w3.org/1999/xlink" x="0px" y="0px"
	 width="100%" viewBox="0 0 3000 3000" enable-background="new 0 0 3000 3000" xml:space="preserve">
<path fill="#0068B5" opacity="1.000000" stroke="none" 
	d="
M1754.000000,3002.000000 
	C1169.333496,3002.000000 585.666870,3002.000000 2.000235,3002.000000 
	C2.000157,2002.000244 2.000157,1002.000549 2.000078,2.000638 
	C1001.999512,2.000425 2001.999023,2.000425 3001.999023,2.000212 
	C3001.999268,1001.999329 3001.999268,2001.998657 3001.999512,3001.999023 
	C2586.333252,3002.000000 2170.666748,3002.000000 1754.000000,3002.000000 
M1847.113037,1843.917969 
	C1965.179321,1890.785034 2126.773926,1866.193115 2218.773193,1754.309448 
	C2183.123047,1727.152344 2147.501953,1700.017334 2112.999023,1673.734009 
	C2099.930908,1684.105225 2088.597900,1694.554077 2075.894287,1702.921387 
	C2028.743286,1733.978394 1976.970459,1742.742798 1921.956055,1731.698242 
	C1878.839111,1723.041992 1845.574829,1699.883301 1823.842407,1661.173706 
	C1817.342163,1649.595825 1812.221191,1637.425171 1809.265869,1622.823242 
	C1958.336182,1622.823242 2106.396484,1622.823242 2255.276123,1622.823242 
	C2255.276123,1609.588379 2255.231934,1597.648315 2255.285156,1585.708862 
	C2255.409668,1557.682373 2254.358887,1529.797485 2248.158447,1502.273560 
	C2233.228271,1435.999146 2200.949951,1380.048462 2147.708740,1337.540039 
	C2078.189209,1282.034668 1997.919312,1265.601929 1911.539429,1279.287476 
	C1841.973755,1290.308960 1783.564209,1323.881958 1737.857788,1377.559204 
	C1683.389526,1441.526489 1660.047119,1515.938110 1667.558960,1599.840332 
	C1672.107422,1650.644897 1688.571655,1697.225830 1716.932007,1739.562988 
	C1749.049438,1787.508179 1792.676147,1821.274658 1847.113037,1843.917969 
M940.772522,1301.730591 
	C912.008179,1317.211060 888.950562,1339.263794 869.383545,1365.336426 
	C868.765503,1365.036255 868.147522,1364.735962 867.529480,1364.435791 
	C867.529480,1338.660645 867.529480,1312.885620 867.529480,1286.748047 
	C817.988159,1286.748047 769.500244,1286.748047 720.458252,1286.748047 
	C720.458252,1475.999390 720.458252,1664.749023 720.458252,1853.423950 
	C733.841797,1855.437256 861.281799,1854.858521 868.475464,1852.713867 
	C868.475464,1848.848267 868.475525,1844.862549 868.475525,1840.876709 
	C868.475647,1753.895142 868.399658,1666.913452 868.518616,1579.932007 
	C868.558350,1550.869629 870.758545,1522.050049 879.777832,1494.109985 
	C891.744873,1457.038086 915.843506,1430.968872 951.168823,1415.155029 
	C976.604980,1403.768188 1003.289124,1402.120850 1030.482910,1406.323608 
	C1080.518555,1414.056152 1111.758789,1443.060181 1125.879517,1491.218262 
	C1132.026489,1512.181885 1134.003662,1533.670410 1134.001709,1555.421265 
	C1133.993286,1651.067627 1134.018188,1746.713867 1134.031128,1842.360229 
	C1134.031616,1846.222290 1134.031250,1850.084351 1134.031250,1853.987549 
	C1185.023926,1853.987549 1234.585571,1853.987549 1285.276611,1853.987549 
	C1285.276611,1849.601562 1285.276733,1845.687866 1285.276733,1841.774048 
	C1285.276733,1743.461548 1285.338501,1645.148926 1285.214233,1546.836670 
	C1285.194092,1530.850342 1284.899048,1514.826416 1283.774780,1498.887329 
	C1281.200928,1462.394653 1273.512085,1427.033813 1257.400146,1393.948364 
	C1235.106445,1348.168579 1200.976807,1314.495972 1153.906860,1294.388184 
	C1120.254395,1280.012207 1084.815186,1274.942383 1048.556274,1274.905884 
	C1010.984192,1274.868042 975.191589,1282.648682 940.772522,1301.730591 
M1523.323730,1681.191284 
	C1517.311035,1661.163208 1516.572998,1640.473999 1516.479248,1619.850220 
	C1516.180908,1554.213501 1516.348877,1488.574585 1516.375977,1422.936523 
	C1516.376953,1420.383423 1516.781738,1417.830444 1517.084595,1414.262207 
	C1553.091797,1414.262207 1588.548828,1414.262207 1624.049072,1414.262207 
	C1624.049072,1371.047485 1624.049072,1328.913452 1624.049072,1286.246216 
	C1611.368774,1286.246216 1599.393433,1286.246338 1587.418213,1286.246338 
	C1575.756592,1286.246338 1564.095093,1286.269409 1552.433472,1286.239868 
	C1540.595947,1286.209839 1528.747925,1286.369751 1516.244873,1286.128418 
	C1516.244873,1211.839355 1516.244873,1138.967651 1516.244873,1066.229004 
	C1504.661011,1064.221558 1374.212891,1064.678833 1366.632324,1066.785156 
	C1366.632324,1069.595947 1366.632324,1072.571411 1366.632324,1075.546875 
	C1366.633301,1256.134888 1366.520142,1436.723022 1366.729858,1617.310791 
	C1366.772827,1654.323120 1369.242310,1691.215576 1377.823120,1727.420044 
	C1385.665161,1760.507324 1399.590820,1790.256592 1425.496704,1813.323242 
	C1449.621826,1834.804321 1478.586304,1845.838257 1509.705811,1852.175171 
	C1546.164185,1859.599487 1583.091187,1860.611450 1620.119019,1860.181030 
	C1621.387329,1860.166260 1622.651245,1859.776489 1624.097656,1859.531006 
	C1624.097656,1813.467407 1624.097656,1767.678589 1624.097656,1721.558350 
	C1620.837524,1721.384033 1618.216064,1721.287964 1615.601685,1721.096436 
	C1601.324829,1720.050659 1586.980103,1719.544434 1572.790039,1717.791138 
	C1550.310425,1715.013550 1531.876953,1705.918823 1523.323730,1681.191284 
M2482.843262,1399.000732 
	C2482.843262,1273.469849 2482.843262,1147.938843 2482.843262,1021.835205 
	C2432.694580,1021.835205 2383.584473,1021.835205 2333.905273,1021.835205 
	C2333.905273,1299.301514 2333.905273,1576.338989 2333.905273,1853.306641 
	C2345.953125,1855.359985 2475.525635,1854.876099 2482.843506,1852.693970 
	C2482.843506,1702.216431 2482.843506,1551.608643 2482.843262,1399.000732 
M482.918274,1608.999268 
	C482.918274,1690.554932 482.918274,1772.110596 482.918274,1853.988770 
	C533.330261,1853.988770 582.539673,1853.988770 632.034180,1853.988770 
	C632.034180,1664.649414 632.034180,1475.795166 632.034180,1286.775757 
	C582.351868,1286.775757 533.180420,1286.775757 482.918365,1286.775757 
	C482.918365,1393.869873 482.918365,1500.434448 482.918274,1608.999268 
M577.000000,1032.310181 
	C566.002991,1032.310059 555.005920,1032.309814 544.008911,1032.309692 
	C533.345093,1032.309570 522.681091,1032.266113 512.017578,1032.321655 
	C501.166962,1032.378296 490.316803,1032.532227 479.817841,1032.639893 
	C477.190247,1045.738770 477.860809,1182.314209 480.410248,1189.642212 
	C482.535400,1189.868408 484.823273,1190.322144 487.111572,1190.324219 
	C533.765686,1190.365112 580.419861,1190.374756 627.073975,1190.304932 
	C629.904846,1190.300659 632.734741,1189.585083 635.249207,1189.243408 
	C637.370239,1175.273071 636.717285,1040.886230 634.256775,1032.311157 
	C616.125977,1032.311157 597.562988,1032.311157 577.000000,1032.310181 
M2654.279053,1784.932495 
	C2653.595459,1783.417358 2652.992432,1781.859375 2652.215820,1780.393555 
	C2638.755127,1754.987671 2611.963867,1743.390747 2585.658691,1751.719727 
	C2564.607178,1758.385498 2543.666504,1780.266724 2547.482422,1812.498047 
	C2551.549561,1846.850830 2590.243652,1869.459839 2622.661377,1856.292236 
	C2648.903564,1845.633057 2665.167969,1815.663330 2654.279053,1784.932495 
z"/>
<path fill="#FEFEFF" opacity="1.000000" stroke="none" 
	d="
M1846.401123,1843.632324 
	C1792.676147,1821.274658 1749.049438,1787.508179 1716.932007,1739.562988 
	C1688.571655,1697.225830 1672.107422,1650.644897 1667.558960,1599.840332 
	C1660.047119,1515.938110 1683.389526,1441.526489 1737.857788,1377.559204 
	C1783.564209,1323.881958 1841.973755,1290.308960 1911.539429,1279.287476 
	C1997.919312,1265.601929 2078.189209,1282.034668 2147.708740,1337.540039 
	C2200.949951,1380.048462 2233.228271,1435.999146 2248.158447,1502.273560 
	C2254.358887,1529.797485 2255.409668,1557.682373 2255.285156,1585.708862 
	C2255.231934,1597.648315 2255.276123,1609.588379 2255.276123,1622.823242 
	C2106.396484,1622.823242 1958.336182,1622.823242 1809.265869,1622.823242 
	C1812.221191,1637.425171 1817.342163,1649.595825 1823.842407,1661.173706 
	C1845.574829,1699.883301 1878.839111,1723.041992 1921.956055,1731.698242 
	C1976.970459,1742.742798 2028.743286,1733.978394 2075.894287,1702.921387 
	C2088.597900,1694.554077 2099.930908,1684.105225 2112.999023,1673.734009 
	C2147.501953,1700.017334 2183.123047,1727.152344 2218.773193,1754.309448 
	C2126.773926,1866.193115 1965.179321,1890.785034 1846.401123,1843.632324 
M2089.017822,1460.017090 
	C2076.020264,1443.560181 2060.344482,1430.246826 2041.417236,1421.205566 
	C1991.441895,1397.332642 1940.355225,1396.500610 1889.397461,1416.914429 
	C1857.429565,1429.720825 1833.077881,1452.095947 1818.212402,1483.715820 
	C1813.404175,1493.943237 1809.873413,1504.674072 1810.128662,1516.697510 
	C1910.703247,1516.697510 2010.776367,1516.697510 2110.826172,1516.697510 
	C2111.330811,1499.068481 2105.093018,1482.757446 2089.017822,1460.017090 
z"/>
<path fill="#FEFEFF" opacity="1.000000" stroke="none" 
	d="
M941.414185,1301.362549 
	C975.191589,1282.648682 1010.984192,1274.868042 1048.556274,1274.905884 
	C1084.815186,1274.942383 1120.254395,1280.012207 1153.906860,1294.388184 
	C1200.976807,1314.495972 1235.106445,1348.168579 1257.400146,1393.948364 
	C1273.512085,1427.033813 1281.200928,1462.394653 1283.774780,1498.887329 
	C1284.899048,1514.826416 1285.194092,1530.850342 1285.214233,1546.836670 
	C1285.338501,1645.148926 1285.276733,1743.461548 1285.276733,1841.774048 
	C1285.276733,1845.687866 1285.276611,1849.601562 1285.276611,1853.987549 
	C1234.585571,1853.987549 1185.023926,1853.987549 1134.031250,1853.987549 
	C1134.031250,1850.084351 1134.031616,1846.222290 1134.031128,1842.360229 
	C1134.018188,1746.713867 1133.993286,1651.067627 1134.001709,1555.421265 
	C1134.003662,1533.670410 1132.026489,1512.181885 1125.879517,1491.218262 
	C1111.758789,1443.060181 1080.518555,1414.056152 1030.482910,1406.323608 
	C1003.289124,1402.120850 976.604980,1403.768188 951.168823,1415.155029 
	C915.843506,1430.968872 891.744873,1457.038086 879.777832,1494.109985 
	C870.758545,1522.050049 868.558350,1550.869629 868.518616,1579.932007 
	C868.399658,1666.913452 868.475647,1753.895142 868.475525,1840.876709 
	C868.475525,1844.862549 868.475464,1848.848267 868.475464,1852.713867 
	C861.281799,1854.858521 733.841797,1855.437256 720.458252,1853.423950 
	C720.458252,1664.749023 720.458252,1475.999390 720.458252,1286.748047 
	C769.500244,1286.748047 817.988159,1286.748047 867.529480,1286.748047 
	C867.529480,1312.885620 867.529480,1338.660645 867.529480,1364.435791 
	C868.147522,1364.735962 868.765503,1365.036255 869.383545,1365.336426 
	C888.950562,1339.263794 912.008179,1317.211060 941.414185,1301.362549 
z"/>
<path fill="#FEFEFF" opacity="1.000000" stroke="none" 
	d="
M1523.575562,1681.941162 
	C1531.876953,1705.918823 1550.310425,1715.013550 1572.790039,1717.791138 
	C1586.980103,1719.544434 1601.324829,1720.050659 1615.601685,1721.096436 
	C1618.216064,1721.287964 1620.837524,1721.384033 1624.097656,1721.558350 
	C1624.097656,1767.678589 1624.097656,1813.467407 1624.097656,1859.531006 
	C1622.651245,1859.776489 1621.387329,1860.166260 1620.119019,1860.181030 
	C1583.091187,1860.611450 1546.164185,1859.599487 1509.705811,1852.175171 
	C1478.586304,1845.838257 1449.621826,1834.804321 1425.496704,1813.323242 
	C1399.590820,1790.256592 1385.665161,1760.507324 1377.823120,1727.420044 
	C1369.242310,1691.215576 1366.772827,1654.323120 1366.729858,1617.310791 
	C1366.520142,1436.723022 1366.633301,1256.134888 1366.632324,1075.546875 
	C1366.632324,1072.571411 1366.632324,1069.595947 1366.632324,1066.785156 
	C1374.212891,1064.678833 1504.661011,1064.221558 1516.244873,1066.229004 
	C1516.244873,1138.967651 1516.244873,1211.839355 1516.244873,1286.128418 
	C1528.747925,1286.369751 1540.595947,1286.209839 1552.433472,1286.239868 
	C1564.095093,1286.269409 1575.756592,1286.246338 1587.418213,1286.246338 
	C1599.393433,1286.246338 1611.368774,1286.246216 1624.049072,1286.246216 
	C1624.049072,1328.913452 1624.049072,1371.047485 1624.049072,1414.262207 
	C1588.548828,1414.262207 1553.091797,1414.262207 1517.084595,1414.262207 
	C1516.781738,1417.830444 1516.376953,1420.383423 1516.375977,1422.936523 
	C1516.348877,1488.574585 1516.180908,1554.213501 1516.479248,1619.850220 
	C1516.572998,1640.473999 1517.311035,1661.163208 1523.575562,1681.941162 
z"/>
<path fill="#FFFFFF" opacity="1.000000" stroke="none" 
	d="
M2482.843262,1400.000732 
	C2482.843506,1551.608643 2482.843506,1702.216431 2482.843506,1852.693970 
	C2475.525635,1854.876099 2345.953125,1855.359985 2333.905273,1853.306641 
	C2333.905273,1576.338989 2333.905273,1299.301514 2333.905273,1021.835205 
	C2383.584473,1021.835205 2432.694580,1021.835205 2482.843262,1021.835205 
	C2482.843262,1147.938843 2482.843262,1273.469849 2482.843262,1400.000732 
z"/>
<path fill="#FDFEFE" opacity="1.000000" stroke="none" 
	d="
M482.918335,1607.999146 
	C482.918365,1500.434448 482.918365,1393.869873 482.918365,1286.775757 
	C533.180420,1286.775757 582.351868,1286.775757 632.034180,1286.775757 
	C632.034180,1475.795166 632.034180,1664.649414 632.034180,1853.988770 
	C582.539673,1853.988770 533.330261,1853.988770 482.918274,1853.988770 
	C482.918274,1772.110596 482.918274,1690.554932 482.918335,1607.999146 
z"/>
<path fill="#00C6FC" opacity="1.000000" stroke="none" 
	d="
M578.000000,1032.310669 
	C597.562988,1032.311157 616.125977,1032.311157 634.256775,1032.311157 
	C636.717285,1040.886230 637.370239,1175.273071 635.249207,1189.243408 
	C632.734741,1189.585083 629.904846,1190.300659 627.073975,1190.304932 
	C580.419861,1190.374756 533.765686,1190.365112 487.111572,1190.324219 
	C484.823273,1190.322144 482.535400,1189.868408 480.410248,1189.642212 
	C477.860809,1182.314209 477.190247,1045.738770 479.817841,1032.639893 
	C490.316803,1032.532227 501.166962,1032.378296 512.017578,1032.321655 
	C522.681091,1032.266113 533.345093,1032.309570 544.008911,1032.309692 
	C555.005920,1032.309814 566.002991,1032.310059 578.000000,1032.310669 
z"/>
<path fill="#F0F5FA" opacity="1.000000" stroke="none" 
	d="
M2654.570801,1785.674072 
	C2665.167969,1815.663330 2648.903564,1845.633057 2622.661377,1856.292236 
	C2590.243652,1869.459839 2551.549561,1846.850830 2547.482422,1812.498047 
	C2543.666504,1780.266724 2564.607178,1758.385498 2585.658691,1751.719727 
	C2611.963867,1743.390747 2638.755127,1754.987671 2652.215820,1780.393555 
	C2652.992432,1781.859375 2653.595459,1783.417358 2654.570801,1785.674072 
M2599.348389,1759.231812 
	C2597.038330,1759.533203 2594.687988,1759.656006 2592.424072,1760.163208 
	C2567.076416,1765.841309 2551.763916,1791.500000 2558.543701,1816.848877 
	C2565.202637,1841.747070 2591.932861,1855.940308 2616.829102,1847.797241 
	C2641.482178,1839.733887 2654.562988,1812.230835 2644.739746,1788.132202 
	C2636.864014,1768.811890 2621.844727,1759.523560 2599.348389,1759.231812 
z"/>
<path fill="#036AB6" opacity="1.000000" stroke="none" 
	d="
M2089.457520,1460.585449 
	C2105.093018,1482.757446 2111.330811,1499.068481 2110.826172,1516.697510 
	C2010.776367,1516.697510 1910.703247,1516.697510 1810.128662,1516.697510 
	C1809.873413,1504.674072 1813.404175,1493.943237 1818.212402,1483.715820 
	C1833.077881,1452.095947 1857.429565,1429.720825 1889.397461,1416.914429 
	C1940.355225,1396.500610 1991.441895,1397.332642 2041.417236,1421.205566 
	C2060.344482,1430.246826 2076.020264,1443.560181 2089.457520,1460.585449 
z"/>
<path fill="#0C6DB7" opacity="1.000000" stroke="none" 
	d="
M2600.251465,1759.158936 
	C2621.844727,1759.523560 2636.864014,1768.811890 2644.739746,1788.132202 
	C2654.562988,1812.230835 2641.482178,1839.733887 2616.829102,1847.797241 
	C2591.932861,1855.940308 2565.202637,1841.747070 2558.543701,1816.848877 
	C2551.763916,1791.500000 2567.076416,1765.841309 2592.424072,1760.163208 
	C2594.687988,1759.656006 2597.038330,1759.533203 2600.251465,1759.158936 
M2626.287109,1783.348511 
	C2624.228027,1777.847900 2620.104492,1774.904053 2614.499023,1773.709351 
	C2603.668945,1771.401123 2592.859619,1772.551147 2581.971680,1772.684937 
	C2581.971680,1794.279053 2581.971680,1814.737427 2581.971680,1835.906006 
	C2585.871826,1835.709595 2588.978027,1835.553345 2592.924805,1835.354614 
	C2592.924805,1826.521729 2592.924805,1818.653442 2592.924805,1811.168335 
	C2598.744873,1808.779663 2601.849854,1810.620239 2604.375977,1815.087402 
	C2608.290283,1822.009277 2612.649902,1828.679077 2616.712646,1835.280273 
	C2620.608398,1835.280273 2624.029541,1835.280273 2628.705322,1835.280273 
	C2623.281982,1826.189453 2618.452148,1818.093384 2613.597412,1809.955688 
	C2627.375488,1803.113281 2629.289551,1799.253418 2626.287109,1783.348511 
z"/>
<path fill="#F0F5FA" opacity="1.000000" stroke="none" 
	d="
M2626.575195,1784.091064 
	C2629.289551,1799.253418 2627.375488,1803.113281 2613.597412,1809.955688 
	C2618.452148,1818.093384 2623.281982,1826.189453 2628.705322,1835.280273 
	C2624.029541,1835.280273 2620.608398,1835.280273 2616.712646,1835.280273 
	C2612.649902,1828.679077 2608.290283,1822.009277 2604.375977,1815.087402 
	C2601.849854,1810.620239 2598.744873,1808.779663 2592.924805,1811.168335 
	C2592.924805,1818.653442 2592.924805,1826.521729 2592.924805,1835.354614 
	C2588.978027,1835.553345 2585.871826,1835.709595 2581.971680,1835.906006 
	C2581.971680,1814.737427 2581.971680,1794.279053 2581.971680,1772.684937 
	C2592.859619,1772.551147 2603.668945,1771.401123 2614.499023,1773.709351 
	C2620.104492,1774.904053 2624.228027,1777.847900 2626.575195,1784.091064 
M2616.017822,1792.662354 
	C2616.681885,1786.313721 2612.998047,1783.344238 2607.442871,1782.682251 
	C2602.946777,1782.146240 2598.335693,1782.573486 2593.332031,1782.573486 
	C2593.332031,1788.640625 2593.332031,1794.050049 2593.332031,1799.673218 
	C2596.339355,1799.817139 2598.640869,1799.973145 2600.944824,1800.022339 
	C2602.602051,1800.057739 2604.270752,1800.039917 2605.919922,1799.889648 
	C2610.023438,1799.515625 2613.827393,1798.550293 2616.017822,1792.662354 
z"/>
<path fill="#0C6DB7" opacity="1.000000" stroke="none" 
	d="
M2615.845947,1793.453491 
	C2613.827393,1798.550293 2610.023438,1799.515625 2605.919922,1799.889648 
	C2604.270752,1800.039917 2602.602051,1800.057739 2600.944824,1800.022339 
	C2598.640869,1799.973145 2596.339355,1799.817139 2593.332031,1799.673218 
	C2593.332031,1794.050049 2593.332031,1788.640625 2593.332031,1782.573486 
	C2598.335693,1782.573486 2602.946777,1782.146240 2607.442871,1782.682251 
	C2612.998047,1783.344238 2616.681885,1786.313721 2615.845947,1793.453491 
z"/>
</svg>